<svg width="40" height="40" viewBox="0 0 40 40" fill="none" xmlns="http://www.w3.org/2000/svg">
<g id="Group 31">
<g id="Ellipse 11">
<mask id="path-1-inside-1_9_1225" fill="white">
<path d="M5.85786 5.84395C7.76393 3.94241 10.0356 2.44488 12.5365 1.44135C15.0374 0.437811 17.7158 -0.0510252 20.4108 0.00420909C23.1058 0.0594434 25.7618 0.657608 28.2193 1.76276C30.6767 2.86792 32.8848 4.45726 34.711 6.43529L31.6691 9.2304C30.2205 7.66139 28.469 6.40069 26.5197 5.52406C24.5704 4.64743 22.4636 4.17296 20.3258 4.12914C18.1881 4.08533 16.0635 4.47309 14.0798 5.26911C12.0961 6.06513 10.2941 7.253 8.7822 8.76134L5.85786 5.84395Z"/>
</mask>
<path d="M5.85786 5.84395C7.76393 3.94241 10.0356 2.44488 12.5365 1.44135C15.0374 0.437811 17.7158 -0.0510252 20.4108 0.00420909C23.1058 0.0594434 25.7618 0.657608 28.2193 1.76276C30.6767 2.86792 32.8848 4.45726 34.711 6.43529L31.6691 9.2304C30.2205 7.66139 28.469 6.40069 26.5197 5.52406C24.5704 4.64743 22.4636 4.17296 20.3258 4.12914C18.1881 4.08533 16.0635 4.47309 14.0798 5.26911C12.0961 6.06513 10.2941 7.253 8.7822 8.76134L5.85786 5.84395Z" stroke="black" stroke-width="4" mask="url(#path-1-inside-1_9_1225)"/>
</g>
<path id="Ellipse 12" d="M25.1784 9.31686C26.455 9.90991 27.6975 10.6318 28.9012 11.3493L28.2057 12.5082C28.1305 12.4616 28.0546 12.4146 27.9782 12.3673C27.0925 11.8186 26.1292 11.2218 25.1636 10.723C23.7699 10.0032 22.2243 9.40329 20.5998 9.34812C18.9733 9.29288 17.4092 9.78852 15.9883 10.4139C15.045 10.8291 14.0886 11.3396 13.2027 11.8123C13.093 11.8709 12.9843 11.9289 12.8768 11.9861L12.261 10.781C12.2926 10.7647 12.3242 10.7483 12.3558 10.732C13.5612 10.1089 14.7521 9.49326 15.9782 8.99755C17.524 8.37257 19.0342 7.97942 20.532 8.03029C22.0356 8.08136 23.5966 8.58199 25.1784 9.31686Z" stroke="black" stroke-width="2"/>
<circle id="Ellipse 13" cx="20.5225" cy="20.2375" r="5.3658" stroke="black" stroke-width="2"/>
</g>
</svg>
