<svg width="27" height="28" viewBox="0 0 27 28" fill="none" xmlns="http://www.w3.org/2000/svg">
<g id="Group 72">
<g id="Group">
<path id="Vector" d="M11.2723 25.348H5.58045C3.73613 25.3414 2.24078 23.8877 2.22723 22.0882V11.0413C2.23085 10.4389 2.50712 9.86884 2.98201 9.48387L3.98427 8.75949C4.35017 8.3791 4.38737 7.79868 4.0729 7.37678C3.75843 6.95488 3.18104 6.81058 2.69742 7.03303L1.67042 7.78156C0.63446 8.56368 0.019687 9.76338 0 11.0413V22.1003C0.00680483 25.1047 2.50128 27.5386 5.58045 27.5453H11.2723C11.8873 27.5453 12.3859 27.0588 12.3859 26.4587C12.3859 25.8586 11.8873 25.3721 11.2723 25.3721V25.348Z" fill="white"/>
<path id="Vector_2" d="M26.7391 11.0172C26.7261 9.74869 26.1313 8.55256 25.1182 7.75749L16.5681 1.1052C14.6892 -0.3684 12.0128 -0.3684 10.1339 1.1052L7.42409 3.02483C6.91498 3.38155 6.79865 4.07343 7.16425 4.57019C7.52985 5.06694 8.23895 5.18045 8.74806 4.82372L11.495 2.81958C12.5731 1.9535 14.1289 1.9535 15.207 2.81958L23.7571 9.47187C24.2492 9.85249 24.54 10.4287 24.549 11.0414V22.1004C24.549 23.9007 23.0533 25.3601 21.2082 25.3601H18.6716C18.4119 25.3601 18.2014 25.1547 18.2014 24.9013V19.9151C18.2014 18.3262 16.8849 17.0363 15.2565 17.0296H11.5445C10.7602 17.0296 10.008 17.3337 9.45337 17.8748C8.89877 18.4159 8.5872 19.1498 8.5872 19.9151V21.8227C8.5872 22.4228 9.08578 22.9093 9.70082 22.9093C10.3159 22.9093 10.8144 22.4228 10.8144 21.8227V19.9151C10.8111 19.7273 10.8853 19.5461 11.0202 19.4122C11.1552 19.2782 11.3396 19.2028 11.5321 19.2028H15.2441C15.6405 19.2028 15.9618 19.5163 15.9618 19.903V24.9013C15.9686 26.3569 17.1798 27.5333 18.6716 27.5333H21.1463C24.2283 27.5333 26.7268 25.0955 26.7268 22.0883L26.7391 11.0172Z" fill="white"/>
</g>
</g>
</svg>
